# xmcd
#
# Track frame offsets:
#	150
#	14537
#	29237
#	47970
#	68652
#	86270
#	103309
#	122172
#	141093
#	159296
#	172533
#
# Disc length: 2481 seconds
#
# Revision: 0
# Processed by: cddbd v1.4PL0 Copyright (c) Steve Scherf et al.
# Submitted via: EasyCDDAExtractor 4.6.0.1
#
DISCID=8d09af0b
DTITLE=Leandro Martínez - Todo lo Que Soy
DYEAR=2003
DGENRE=Rojo
TTITLE0=Te Quiero
TTITLE1=Será Mejor
TTITLE2=Enamorada
TTITLE3=Quiero Convertirme en Amor
TTITLE4=Como Duele
TTITLE5=Como Será
TTITLE6=Todo lo que Soy
TTITLE7=Cuando Se Apague la Luz
TTITLE8=Ya no es Igual
TTITLE9=Historia de un Libro
TTITLE10=Te Quiero (Acústico)
EXTD=
EXTT0=
EXTT1=
EXTT2=
EXTT3=
EXTT4=
EXTT5=
EXTT6=
EXTT7=
EXTT8=
EXTT9=
EXTT10=
PLAYORDER=
